<?xml version="1.0" encoding="UTF-8"?>
<svg width="120" height="40" viewBox="0 0 120 40" fill="none" xmlns="http://www.w3.org/2000/svg">
  <rect width="120" height="40" rx="4" fill="#F9FAFB"/>
  <path d="M32 12H28C26.9 12 26 12.9 26 14V18C26 19.1 26.9 20 28 20H32C33.1 20 34 19.1 34 18V14C34 12.9 33.1 12 32 12ZM32 18H28V16H32V18ZM32 15H28V14H32V15Z" fill="#4F46E5"/>
  <path d="M30 17C30.5523 17 31 16.5523 31 16C31 15.4477 30.5523 15 30 15C29.4477 15 29 15.4477 29 16C29 16.5523 29.4477 17 30 17Z" fill="#4F46E5"/>
  <path d="M44 16L42 13L40 16H41.5V19H42.5V16H44Z" fill="#4F46E5"/>
  <path d="M38 16L36 19L34 16H35.5V13H36.5V16H38Z" fill="#4F46E5"/>
  <text x="50" y="18" font-family="Arial, sans-serif" font-size="10" font-weight="bold" fill="#111827">Connexion</text>
  <text x="50" y="28" font-family="Arial, sans-serif" font-size="10" fill="#4B5563">SSL sécurisée</text>
</svg>
